<?xml version="1.0" encoding="utf-8"?>
<!-- Generator: Adobe Illustrator 18.0.0, SVG Export Plug-In . SVG Version: 6.00 Build 0)  -->
<!DOCTYPE svg PUBLIC "-//W3C//DTD SVG 1.1//EN" "http://www.w3.org/Graphics/SVG/1.1/DTD/svg11.dtd">
<svg version="1.1" id="Capa_1" xmlns="http://www.w3.org/2000/svg" xmlns:xlink="http://www.w3.org/1999/xlink" x="0px" y="0px"
	 width="256px" height="256px" viewBox="0 0 256 256" enable-background="new 0 0 256 256" xml:space="preserve">
<g>
	<path fill="#1B1B1B" d="M235.7,131.9c-0.5-15.5-10.7-30.5-35.7-46c-0.1,0-0.1-0.1-0.2-0.1c-1.3-0.8-3-0.8-4.3,0
		c-1.3,0.8-2,2.3-1.9,3.9c1.4,12.6,0.7,24.1,0,31.4c-0.1,0.7-0.6,1.2-1.3,1.2c-0.7,0.1-1.3-0.4-1.4-1.1c-4.5-19.4-12.6-36-17.7-45.2
		c-0.5-1-1.5-1.7-2.6-2c-12.7-3.1-24.3-4-31.6-4.1c-1.3,0-2.5,0.5-3.3,1.6c-0.8,1-1,2.3-0.7,3.6c5,18.2,4.5,38.6,3.7,48.9
		c-0.1,0.7-0.6,1.2-1.2,1.3s-1.3-0.3-1.5-0.9c-3.9-12-12.6-37.3-20.8-50.4c-0.8-1.3-2.4-2.1-3.9-1.9c-10.6,1.3-20.7,3.2-29.6,7.6
		c-1.8,0.1-2.8,2-2.5,3.9c3.2,16.6,2.5,32.2,1.5,41.4c-0.1,0.7-0.6,1-1.3,1.1c-0.7,0.1-1.3-0.5-1.4-1.1c-2.9-12.6-7.3-24-11.5-33
		c-0.6-1.3-1.7-2.3-3.1-2.7c-1.4-0.4-2.9-0.2-4.1,0.5c-20.8,13-31.4,27.5-33.5,42.2"/>
	<path fill="#1B1B1B" d="M234.7,137.3c0-0.9,0.1-1.8,0.1-2.8"/>
	<path fill="#1B1B1B" d="M24.6,147.7c0,36.1,47,40.3,105.1,40.3c56.5,0,102.6-4,105-37.6"/>
	<polygon fill="#1B1B1B" points="248.9,148.5 11.1,142.3 13.1,136.1 248.9,136.1 	"/>
</g>
</svg>
